<svg width="24" height="24" viewBox="0 0 24 24" fill="none" xmlns="http://www.w3.org/2000/svg">
<path fill-rule="evenodd" clip-rule="evenodd" d="M3 3.75C3 3.33579 3.33579 3 3.75 3H20.25C20.6642 3 21 3.33579 21 3.75C21 4.16421 20.6642 4.5 20.25 4.5H3.75C3.33579 4.5 3 4.16421 3 3.75ZM11.4697 6.96967C11.7626 6.67678 12.2374 6.67678 12.5303 6.96967L17.7803 12.2197C18.0732 12.5126 18.0732 12.9874 17.7803 13.2803C17.4874 13.5732 17.0126 13.5732 16.7197 13.2803L12.75 9.31066V21C12.75 21.4142 12.4142 21.75 12 21.75C11.5858 21.75 11.25 21.4142 11.25 21V9.31066L7.28033 13.2803C6.98744 13.5732 6.51256 13.5732 6.21967 13.2803C5.92678 12.9874 5.92678 12.5126 6.21967 12.2197L11.4697 6.96967Z" fill="#B7B8BD"/>
</svg>
