<svg width="24" height="24" viewBox="0 0 24 24" fill="none" xmlns="http://www.w3.org/2000/svg">
<g clip-path="url(#clip0)">
<path fill-rule="evenodd" clip-rule="evenodd" d="M12.6672 7.05731V2.00028C12.6672 1.63209 12.3687 1.33362 12.0005 1.33362C11.6323 1.33362 11.3338 1.63209 11.3338 2.00028L11.3338 7.05764L9.80506 5.52888C9.54471 5.26853 9.1226 5.26853 8.86225 5.52888C8.60191 5.78923 8.6019 6.21134 8.86225 6.47169L11.5289 9.13836C11.7893 9.3987 12.2114 9.39871 12.4717 9.13836L15.1384 6.47169C15.3987 6.21134 15.3987 5.78923 15.1384 5.52888C14.878 5.26853 14.4559 5.26853 14.1956 5.52888L12.6672 7.05731ZM4.00049 12.0002C4.00049 11.6321 4.29897 11.3336 4.66715 11.3336H19.3338C19.702 11.3336 20.0005 11.6321 20.0005 12.0002C20.0005 12.3684 19.702 12.6669 19.3338 12.6669H4.66716C4.29897 12.6669 4.00049 12.3684 4.00049 12.0002ZM11.5292 14.8622C11.7896 14.6018 12.2117 14.6018 12.4721 14.8622L15.1387 17.5288C15.3991 17.7892 15.3991 18.2113 15.1387 18.4716C14.8784 18.732 14.4563 18.732 14.1959 18.4716L12.6672 16.9429V22.0002C12.6672 22.3684 12.3687 22.6669 12.0005 22.6669C11.6323 22.6669 11.3338 22.3684 11.3338 22.0002V16.9432L9.80539 18.4716C9.54504 18.732 9.12293 18.732 8.86258 18.4716C8.60223 18.2113 8.60223 17.7892 8.86258 17.5288L11.5292 14.8622Z" fill="#B7B8BD"/>
</g>
<defs>
<clipPath id="clip0">
<rect width="21.3333" height="21.3333" fill="white" transform="translate(1.3335 1.33325)"/>
</clipPath>
</defs>
</svg>
