<svg width="24" height="24" viewBox="0 0 24 24" fill="none" xmlns="http://www.w3.org/2000/svg">
<path fill-rule="evenodd" clip-rule="evenodd" d="M12.75 14.6893L12.75 3C12.75 2.58579 12.4142 2.25 12 2.25C11.5858 2.25 11.25 2.58579 11.25 3L11.25 14.6893L7.28033 10.7197C6.98744 10.4268 6.51256 10.4268 6.21967 10.7197C5.92678 11.0126 5.92678 11.4874 6.21967 11.7803L11.4697 17.0303C11.7626 17.3232 12.2374 17.3232 12.5303 17.0303L17.7803 11.7803C18.0732 11.4874 18.0732 11.0126 17.7803 10.7197C17.4874 10.4268 17.0126 10.4268 16.7197 10.7197L12.75 14.6893ZM3 20.25C3 19.8358 3.33579 19.5 3.75 19.5H20.25C20.6642 19.5 21 19.8358 21 20.25C21 20.6642 20.6642 21 20.25 21H3.75C3.33579 21 3 20.6642 3 20.25Z" fill="#B7B8BD"/>
</svg>
