<svg width="24" height="24" viewBox="0 0 24 24" fill="none" xmlns="http://www.w3.org/2000/svg">
<path d="M11.7486 6.00009C11.5504 6.00319 11.3615 6.08481 11.2234 6.22703C11.0853 6.36926 11.0092 6.56047 11.0119 6.75871V13.079L5.37712 16.6017C5.28965 16.6517 5.21317 16.7188 5.15226 16.7991C5.09135 16.8793 5.04727 16.971 5.02267 17.0687C4.99806 17.1664 4.99343 17.2681 5.00906 17.3676C5.02468 17.4672 5.06024 17.5625 5.1136 17.648C5.16696 17.7334 5.23703 17.8072 5.3196 17.8649C5.40217 17.9227 5.49554 17.9631 5.59413 17.9839C5.69271 18.0047 5.79447 18.0053 5.89332 17.9858C5.99216 17.9663 6.08605 17.9271 6.16936 17.8704L11.7603 14.377L17.3513 17.8704C17.4346 17.9271 17.5284 17.9663 17.6273 17.9858C17.7261 18.0053 17.8279 18.0047 17.9265 17.9839C18.0251 17.9631 18.1184 17.9227 18.201 17.8649C18.2836 17.8072 18.3536 17.7334 18.407 17.648C18.4604 17.5625 18.4959 17.4672 18.5115 17.3676C18.5272 17.2681 18.5225 17.1664 18.4979 17.0687C18.4733 16.971 18.4293 16.8793 18.3683 16.7991C18.3074 16.7188 18.231 16.6517 18.1435 16.6017L12.5087 13.079V6.75871C12.5101 6.65858 12.4913 6.5592 12.4536 6.46644C12.4159 6.37369 12.3599 6.28945 12.289 6.21871C12.2182 6.14797 12.1338 6.09217 12.041 6.05462C11.9482 6.01707 11.8487 5.99853 11.7486 6.00009Z" fill="#00C358" stroke="#00C358" stroke-width="0.75"/>
</svg>
