<svg width="24" height="24" viewBox="0 0 24 24" fill="none" xmlns="http://www.w3.org/2000/svg">
<path fill-rule="evenodd" clip-rule="evenodd" d="M3.48637 10.3919C3.32225 9.97728 3.34036 9.51272 3.55136 9.08322L5.12642 6.3917C5.51244 5.7574 6.29527 5.48768 6.99524 5.75156L7.08682 5.78835L8.23585 6.3191C8.36776 6.2345 8.50261 6.15456 8.64015 6.07944L8.77749 4.83041C8.78312 4.43608 8.94628 4.06038 9.2306 3.78707C9.51491 3.51376 9.89675 3.36554 10.2753 3.37527L13.3519 3.37567C14.1377 3.40399 14.7727 4.02594 14.8147 4.77921L14.9562 6.08636C15.0937 6.16128 15.2286 6.24101 15.3605 6.32539L16.6067 5.75456C17.3009 5.49412 18.0823 5.76336 18.4739 6.40463L20.0831 9.14616C20.3437 9.76557 20.1882 10.4819 19.6761 10.9538L19.5815 11.0325L18.5576 11.7892C18.5582 11.8436 18.5583 11.9043 18.5582 11.9747C18.5613 12.0528 18.5628 12.1309 18.5626 12.209L19.5044 12.9073C19.7853 13.062 20.0051 13.3094 20.1272 13.6117C20.2913 14.0263 20.2732 14.4908 20.0622 14.9203L20.0364 14.9663L18.4777 17.6091C18.0912 18.242 17.3098 18.5112 16.6094 18.2484L16.5179 18.2116L15.3688 17.6809C15.2369 17.7655 15.1021 17.8454 14.9645 17.9205L14.8272 19.1696C14.8216 19.5639 14.6584 19.9396 14.3741 20.2129C14.0898 20.4862 13.7079 20.6344 13.3294 20.6247L10.2528 20.6243C9.46698 20.596 8.83196 19.9741 8.78994 19.2208L8.64853 17.9141C8.51119 17.8395 8.3765 17.7602 8.24473 17.6761L6.99896 18.2469C6.30416 18.5088 5.52133 18.239 5.13076 17.5971L3.5213 14.8549C3.26141 14.2348 3.41802 13.5184 3.92335 13.054L4.02269 12.9696L5.04702 12.2112C5.0463 12.1536 5.04608 12.0884 5.04611 12.012C5.04468 11.9379 5.04479 11.8639 5.04643 11.7898L4.11167 11.0968C3.83003 10.9425 3.60937 10.6952 3.48637 10.3919ZM4.81671 10.0633L6.06111 10.986C6.23587 11.1155 6.33068 11.3267 6.31142 11.5434C6.29828 11.6912 6.29313 11.8396 6.29609 12C6.29609 12.2423 6.2987 12.3438 6.30996 12.444C6.33485 12.6655 6.2399 12.8835 6.06077 13.0161L4.80726 13.9414L4.75905 13.9836C4.65185 14.0822 4.61793 14.2373 4.63626 14.2959L6.20322 16.9549C6.27674 17.0757 6.42583 17.1271 6.51779 17.0941L8.04308 16.3936C8.24723 16.2999 8.48599 16.3229 8.66847 16.454C8.93123 16.6427 9.21031 16.8076 9.50238 16.9467C9.69821 17.0399 9.83167 17.2281 9.85501 17.4437L10.0354 19.1181C10.0434 19.2587 10.1571 19.3701 10.2754 19.3747L13.3452 19.3749C13.4057 19.3765 13.4643 19.3537 13.5079 19.3118C13.5515 19.2699 13.5766 19.2122 13.581 19.0934L13.7588 17.4508C13.782 17.2358 13.9148 17.048 14.1099 16.9545C14.4021 16.8144 14.6812 16.6484 14.9438 16.4586C15.1268 16.3263 15.367 16.3031 15.572 16.3978L17.0057 17.0614L17.0547 17.0804C17.1876 17.1303 17.3371 17.0787 17.4061 16.9659L18.9518 14.3453C18.9959 14.2576 18.9997 14.1594 18.9666 14.0757C18.9531 14.0423 18.9278 14.015 18.8954 13.9991L18.7988 13.9402L17.5544 13.0176C17.3834 12.8908 17.2886 12.6855 17.3031 12.4731C17.3133 12.324 17.3153 12.1745 17.3088 12C17.3088 11.7578 17.3062 11.6562 17.2949 11.556C17.27 11.3344 17.3652 11.1162 17.5446 10.9836L18.8046 10.0543L18.8468 10.019C18.9538 9.92025 18.9874 9.76509 18.9686 9.70587L17.4022 7.04774C17.3282 6.92663 17.1787 6.8751 17.0871 6.90774L15.5618 7.60816C15.3573 7.70205 15.1182 7.6788 14.9356 7.54727C14.673 7.35801 14.3939 7.1926 14.1018 7.05301C13.9063 6.95962 13.7732 6.77169 13.7499 6.55634L13.5695 4.88196C13.5615 4.74135 13.4477 4.62995 13.3295 4.62528L10.2597 4.62509C10.1992 4.62357 10.1406 4.6463 10.097 4.68823C10.0534 4.73017 10.0283 4.7878 10.0239 4.90662L9.84612 6.54923C9.82285 6.76428 9.69003 6.95202 9.49498 7.04554C9.2028 7.18564 8.92373 7.35158 8.66112 7.54139C8.47809 7.67368 8.23793 7.69694 8.03292 7.60224L6.59921 6.93862L6.54928 6.91926C6.41695 6.86938 6.26785 6.92075 6.19976 7.03246L4.66194 9.6583C4.61786 9.74601 4.61403 9.84419 4.64677 9.92696C4.66036 9.96046 4.68585 9.98776 4.71835 10.0036L4.81671 10.0633ZM11.8003 8.50025C13.7332 8.50025 15.3002 10.0672 15.3002 12.0001C15.3002 13.933 13.7332 15.5 11.8003 15.5C9.86738 15.5 8.30044 13.933 8.30044 12.0001C8.28883 11.0684 8.65384 10.1714 9.31272 9.51254C9.97161 8.85365 10.8686 8.48864 11.8003 8.50025ZM11.8003 9.75025L11.7848 9.75016C11.1899 9.74274 10.6173 9.97577 10.1966 10.3964C9.77599 10.8171 9.54296 11.3897 9.55047 12.0001C9.55047 13.2427 10.5578 14.25 11.8003 14.25C13.0429 14.25 14.0502 13.2427 14.0502 12.0001C14.0502 10.7576 13.0429 9.75025 11.8003 9.75025Z" fill="#00C358"/>
</svg>
