<svg width="24" height="24" viewBox="0 0 24 24" fill="none" xmlns="http://www.w3.org/2000/svg">
<path fill-rule="evenodd" clip-rule="evenodd" d="M10 16.75C6.27208 16.75 3.25 13.7279 3.25 10C3.25 6.27208 6.27208 3.25 10 3.25C13.7279 3.25 16.75 6.27208 16.75 10C16.75 11.5032 16.2586 12.8917 15.4277 14.0135L20.3053 18.8911C20.6959 19.2817 20.6959 19.9148 20.3053 20.3053C19.9148 20.6959 19.2817 20.6959 18.8911 20.3053L14.0135 15.4277C12.8917 16.2586 11.5032 16.75 10 16.75ZM15.25 10C15.25 12.8995 12.8995 15.25 10 15.25C7.10051 15.25 4.75 12.8995 4.75 10C4.75 7.1005 7.10051 4.75 10 4.75C12.8995 4.75 15.25 7.1005 15.25 10Z" fill="#B7B8BD"/>
</svg>
